PathFileType	4	(X/Y/Z)	C:/Users/opensim2020/Desktop/walking_exp_matlab/subject02_walking11_straight_01.trc																																																																																																																												
DataRate	CameraRate	NumFrames	NumMarkers	Units	OrigDataRate	OrigDataStartFrame	OrigNumFrames																																																																																																																								
100	100	9	42	mm	100	900	267																																																																																																																								
Frame#	Time	LFHD			RFHD			LBHD			RBHD			C7			T10			CLAV			STRN			RBAK			LSHO			LUPA			LELB			LFRM			LWRA			LWRB			LFIN			RSHO			RUPA			RELB			RFRM			RWRA			RWRB			RFIN			LASI			RASI			LPSI			RPSI			LTHI			LKNE			LTIB			LANK			LHEE			LTOE			RTHI			RKNE			RTIB			RANK			RHEE			RTOE			*39			*40			*41		
		X1	Y1	Z1	X2	Y2	Z2	X3	Y3	Z3	X4	Y4	Z4	X5	Y5	Z5	X6	Y6	Z6	X7	Y7	Z7	X8	Y8	Z8	X9	Y9	Z9	X10	Y10	Z10	X11	Y11	Z11	X12	Y12	Z12	X13	Y13	Z13	X14	Y14	Z14	X15	Y15	Z15	X16	Y16	Z16	X17	Y17	Z17	X18	Y18	Z18	X19	Y19	Z19	X20	Y20	Z20	X21	Y21	Z21	X22	Y22	Z22	X23	Y23	Z23	X24	Y24	Z24	X25	Y25	Z25	X26	Y26	Z26	X27	Y27	Z27	X28	Y28	Z28	X29	Y29	Z29	X30	Y30	Z30	X31	Y31	Z31	X32	Y32	Z32	X33	Y33	Z33	X34	Y34	Z34	X35	Y35	Z35	X36	Y36	Z36	X37	Y37	Z37	X38	Y38	Z38	X39	Y39	Z39	X40	Y40	Z40	X41	Y41	Z41	X42	Y42	Z42
																																																																																																																															
167	1.66	83.92937	1756.4126	1430.48108	101.85932	1734.54285	1571.948	-15.27063	1642.96313	1426.60779	-8.93959	1615.45386	1566.96313	-34.30761	1520.2218	1492.06506	-94.95735	1249.53894	1499.76465	102.78938	1450.59753	1472.30542	149.59958	1275.39783	1486.62427	-90.54443	1354.99707	1564.09253	24.01922	1490.52075	1307.45032	-34.38961	1299.05212	1231.95483	-73.08376	1164.07959	1225.22424	-102.22318	1036.49219	1207.31641	-77.54343	898.71643	1222.38379	-126.70107	915.31689	1199.84058	-126.63963	848.44727	1192.55969	62.25784	1491.35303	1670.4314	73.34943	1305.03259	1767.05762	123.75904	1165.72119	1790.0481	192.58194	1065.38513	1799.97766	277.18826	964.13324	1768.74573	240.67792	944.65955	1808.26855	298.85132	902.26086	1804.09863	139.58815	986.92834	1367.5885	128.47156	967.10126	1625.53503	-73.98191	1028.21008	1439.14844	-83.46217	1027.91406	1553.10742	132.19028	685.79675	1288.67773	170.13156	489.09534	1312.62915	184.83546	296.70477	1301.26807	277.20779	88.72437	1312.58569	257.52118	49.41254	1364.83899	433.66891	99.46379	1297.61841	10.93654	666.41095	1669.82617	-24.82763	459.32065	1625.67029	-101.44604	285.78342	1625.97949	-153.67433	99.76955	1582.69141	-194.47606	48.89693	1525.36963	-9.78339	35.63713	1603.92517	-26.04155	1780.7179	1530.66772	2845.96362	1034.19519	-3357.1897	NaN	NaN	NaN
168	1.67	91.99175	1755.54724	1428.50793	109.91269	1733.71826	1569.98047	-7.22383	1642.15906	1424.7196	-0.94221	1614.69165	1565.05371	-26.33997	1519.29346	1490.04773	-86.74258	1248.57141	1497.89233	110.89518	1449.78564	1470.5647	157.8911	1274.71094	1485.24988	-82.57394	1353.6012	1561.57458	32.38043	1489.55029	1305.5658	-25.70608	1297.99988	1230.34424	-65.20544	1163.30933	1223.59521	-95.1039	1035.80725	1205.67151	-71.10064	897.88513	1220.69568	-120.01891	914.95184	1197.88354	-120.5229	847.85046	1190.92017	69.72993	1490.77112	1668.77759	81.3859	1304.34924	1765.26367	132.4313	1165.22974	1788.12939	201.83441	1065.21045	1797.78369	287.53613	964.86963	1766.927	250.92917	944.98425	1806.16492	309.7547	903.36224	1802.33435	148.85867	986.28979	1366.69849	136.75453	966.16467	1624.54956	-65.15857	1027.32446	1437.33167	-74.80212	1026.98267	1551.33813	142.55101	684.90997	1287.84888	179.99063	488.35965	1312.11548	195.79802	296.09897	1300.87158	289.49332	88.51631	1312.25476	269.27097	50.0099	1364.37146	446.12997	100.23956	1297.62268	17.26556	666.13977	1668.82092	-19.70578	459.08994	1625.23181	-98.53228	286.5856	1625.70349	-153.00522	100.98966	1582.69983	-194.61646	51.01478	1525.2821	-9.67142	35.64027	1604.09668	-17.85574	1780.10718	1528.89807	2845.19849	1034.17957	-3360.29517	NaN	NaN	NaN
169	1.68	100.04987	1754.73193	1426.44299	117.95105	1732.98474	1567.93372	0.79254	1641.37012	1422.74524	7.04623	1613.98389	1563.07861	-18.36566	1518.45557	1487.93665	-78.23154	1247.44287	1495.82776	119.00108	1449.03528	1468.78833	166.30769	1274.10889	1483.70874	-75.24294	1353.02612	1559.66895	40.7667	1488.55493	1303.57373	-17.80539	1297.10498	1228.21924	-57.14011	1162.50122	1221.80127	-86.77595	1035.29504	1204.2865	-64.36613	897.04828	1218.9397	-112.95983	914.34888	1195.745	-114.03295	847.18011	1189.18579	77.41332	1490.05212	1667.01501	89.12994	1303.56934	1763.1449	140.8839	1164.68188	1786.04614	211.09613	1065.27466	1795.93787	297.35419	965.29309	1764.8938	260.75766	945.18408	1803.92188	319.92578	904.09174	1800.32153	158.26788	985.6037	1365.54529	145.13263	965.34583	1623.3136	-56.17117	1026.44543	1435.42664	-66.05593	1026.12476	1549.42871	153.26663	684.43225	1287.37207	190.03754	487.65973	1311.4408	206.18329	295.34698	1300.39856	300.35275	88.15959	1312.36243	281.66205	48.40141	1365.28015	456.79874	100.15546	1297.38489	23.73055	665.849	1667.76782	-14.26741	458.92886	1624.74695	-95.41065	287.41806	1625.38306	-152.18709	102.38708	1582.82336	-193.84952	52.35115	1525.48828	-9.52168	35.61396	1604.24072	-9.79234	1779.54932	1526.77002	2845.81982	1034.36243	-3356.93555	NaN	NaN	NaN
170	1.69	108.11156	1753.86938	1424.31555	125.97928	1732.23926	1565.79578	8.87562	1640.52649	1420.57397	15.04248	1613.27283	1560.95459	-10.42302	1517.54443	1485.77222	-69.72449	1246.35205	1493.71301	127.15534	1448.29968	1466.87268	174.73763	1273.50659	1482.06482	-67.11365	1351.99451	1557.4198	49.12703	1487.60144	1301.53931	-8.76828	1296.09827	1226.43872	-48.83493	1161.67603	1219.89111	-79.36817	1034.34399	1201.75415	-57.28881	896.21478	1217.07117	-105.84551	913.74518	1193.82654	-107.1785	846.73889	1187.20007	84.98677	1489.41455	1665.06738	96.65758	1302.60962	1760.625	148.93269	1163.93164	1783.56445	219.69354	1064.88147	1793.4646	306.73776	965.73102	1762.68079	270.20404	945.18823	1801.57214	329.3916	904.37463	1797.9873	167.77319	984.94299	1364.13708	153.67148	964.49042	1621.9054	-47.08657	1025.5166	1433.38135	-57.19675	1025.25989	1547.38867	164.19499	683.71021	1286.40039	200.24446	487.00317	1310.57068	215.94455	294.5314	1300.02881	309.3046	86.94044	1312.73645	290.67355	47.46864	1365.60315	465.80731	99.03955	1297.14441	30.50819	665.55029	1666.63647	-8.691	458.79401	1624.32581	-92.07272	288.28519	1625.05615	-151.32593	103.95721	1583.05151	-193.36882	54.26315	1525.67761	-9.38026	35.57233	1604.44299	-1.7374	1778.58398	1524.5885	2845.84961	1034.25635	-3357.08618	NaN	NaN	NaN
171	1.7	116.20969	1753.07043	1422.08105	133.94737	1731.50696	1563.53833	16.86143	1639.71924	1418.35315	22.98858	1612.59326	1558.73901	-2.22324	1516.41174	1483.38818	-61.14748	1245.25085	1491.4353	135.33116	1447.61755	1464.85913	183.29225	1272.94824	1480.3374	-59.00563	1350.93311	1555.07263	57.55917	1486.64392	1299.3811	-0.5491	1295.19568	1224.18689	-40.34064	1160.7511	1217.80884	-70.93892	1033.59802	1199.85986	-49.71102	895.3222	1214.98828	-98.04124	913.10834	1191.51013	-99.72554	845.992	1185.00391	92.46992	1488.82874	1663.02551	104.41628	1301.98596	1758.47668	157.19029	1163.49304	1781.39746	228.35419	1064.73584	1791.40466	315.91891	966.06635	1760.51819	279.29883	945.12024	1799.05554	338.81247	904.7099	1795.74927	177.31129	984.21936	1362.55408	162.35487	963.69379	1620.3772	-37.78398	1024.55737	1431.21741	-48.24846	1024.45947	1545.19543	174.8916	683.24469	1285.04395	210.50877	486.34244	1309.59778	224.93671	293.51389	1299.75427	317.01111	85.7449	1313.27197	298.28577	46.20749	1366.21045	473.34366	96.91695	1296.86951	37.48153	665.22186	1665.51648	-2.91497	458.60159	1623.89673	-88.65898	289.29749	1624.81238	-150.37128	105.64085	1583.27563	-193.15254	56.35919	1525.76904	-9.22827	35.55194	1604.60266	6.26561	1777.90393	1522.30127	2845.82397	1034.23401	-3357.06104	NaN	NaN	NaN
172	1.71	124.14005	1752.25891	1419.69617	141.93658	1730.79944	1561.25488	24.77196	1639.01233	1416.11841	30.9393	1611.85876	1556.4552	5.78609	1515.36743	1480.99316	-52.46749	1244.06189	1489.0802	143.56462	1446.95764	1462.82068	191.92601	1272.40308	1478.47705	-50.8274	1350.06348	1552.98193	65.98125	1485.70142	1297.15698	8.35512	1294.08691	1222.14587	-31.75706	1159.82813	1215.62305	-62.61488	1032.83203	1197.60193	-41.76422	894.41223	1212.75134	-89.98352	912.37189	1188.93237	-92.13049	844.95227	1182.55176	99.92642	1488.18079	1660.83887	111.9567	1301.18567	1755.98389	164.98978	1162.76868	1778.96289	236.59132	1064.30554	1788.97009	324.69638	966.01874	1758.15796	287.97119	944.87885	1796.45691	347.80582	905.01624	1793.51465	187.1274	983.55408	1360.71814	171.22833	962.90076	1618.69421	-28.37612	1023.59076	1428.90808	-39.14155	1023.56885	1542.83984	185.5674	682.71686	1283.22705	220.68773	485.49509	1308.52185	233.24681	292.39279	1299.5166	323.39886	83.9652	1313.88086	303.61575	45.43325	1366.9397	479.63437	94.0173	1296.797	44.70768	664.90271	1664.32458	3.05348	458.5459	1623.38013	-85.09594	290.34442	1624.46472	-149.3644	107.54778	1583.604	-192.47633	58.73902	1526.24182	-9.07724	35.5146	1604.8175	14.18224	1777.01221	1519.65515	2845.2207	1034.26709	-3360.41504	NaN	NaN	NaN
173	1.72	132.02864	1751.46387	1417.07532	149.88806	1730.07227	1558.8252	32.76176	1638.23169	1413.71887	38.86252	1611.15991	1554.02893	13.79775	1514.36499	1478.50061	-43.59338	1242.82214	1486.57068	151.82518	1446.30359	1460.65588	200.65901	1271.94299	1476.57288	-42.92599	1349.09534	1550.66675	74.42359	1484.7738	1294.85852	16.23995	1293.1543	1219.44739	-22.92922	1158.84839	1213.35278	-54.29237	1031.9447	1195.01611	-33.49187	893.36615	1210.4679	-81.38312	911.5473	1186.37915	-83.89349	844.28046	1180.37915	107.5377	1487.58289	1658.65698	119.27763	1300.23376	1753.21606	172.67664	1162.07715	1776.32764	244.58112	1063.8175	1786.40869	333.15762	965.95361	1755.77612	296.28024	944.46136	1793.74414	356.29471	904.75952	1790.93982	196.97632	982.8761	1358.78162	180.3844	962.15906	1616.8429	-18.74841	1022.57349	1426.43835	-29.92638	1022.63824	1540.26794	196.43723	682.04932	1281.81616	230.58537	484.61716	1307.39478	240.96411	291.14188	1299.28955	328.52509	81.80051	1314.5144	308.50037	43.90544	1367.99866	484.77151	90.29449	1296.81677	52.14899	664.63391	1663.10828	8.87377	458.04324	1622.6814	-81.34557	291.48053	1624.02759	-148.32141	109.47989	1583.80884	-191.92598	61.29008	1526.52063	-8.93833	35.48445	1605.0061	22.1363	1776.37988	1517.23633	2845.27637	1034.27563	-3360.22241	NaN	NaN	NaN
174	1.73	140.11678	1750.59375	1414.6875	157.76265	1729.31897	1556.21997	40.86808	1637.29468	1411.15601	46.7982	1610.41602	1551.53674	21.81366	1513.39575	1476.00208	-34.74328	1241.48486	1483.99951	160.13449	1445.63525	1458.36572	209.48007	1271.45642	1474.50757	-34.12904	1347.36853	1547.50439	82.89262	1483.80078	1292.4668	25.37664	1292.06226	1217.25049	-14.01146	1157.78748	1210.96448	-44.55472	1031.01062	1192.88916	-24.71334	892.34558	1208.02075	-72.43492	910.55359	1183.69214	-75.40076	843.29138	1177.64307	114.96302	1486.8894	1656.27417	126.64363	1299.37195	1750.62561	180.17281	1161.28162	1773.70251	252.05008	1062.91931	1783.46362	341.23166	965.50903	1753.15942	304.30347	943.90546	1790.91992	364.29431	904.3924	1788.24048	207.07568	982.23425	1356.56799	189.70287	961.43323	1614.84607	-8.92694	1021.49109	1423.81287	-20.46181	1021.62048	1537.47815	207.15895	681.66785	1279.27368	240.27202	483.57599	1306.15356	248.17352	289.79169	1298.98779	332.66476	79.3092	1315.13904	313.25867	40.84901	1368.74902	488.87885	86.2131	1297.09875	59.688	664.39917	1661.87317	15.37522	458.28403	1622.36096	-77.64582	292.8573	1623.79968	-147.15746	111.67242	1584.10901	-191.22351	63.9995	1526.73621	-8.79718	35.45453	1605.23438	30.12408	1775.70728	1514.81323	2845.24463	1034.18616	-3360.43408	NaN	NaN	NaN
175	1.74	148.05644	1749.63037	1411.98218	165.63866	1728.53577	1553.63184	48.73887	1636.46301	1408.59631	54.86837	1609.70276	1549.23291	29.53119	1512.03784	1473.10046	-25.69455	1240.01685	1481.32776	168.39761	1444.91443	1455.99097	218.48236	1270.99683	1472.32849	-25.82351	1346.24683	1545.06482	91.36366	1482.84143	1289.98718	34.14224	1291.01135	1214.61023	-4.84006	1156.65039	1208.40283	-36.1293	1030.00684	1189.84753	-15.46861	891.21576	1205.37109	-63.21407	909.50262	1181.09888	-66.22553	842.15668	1175.0116	122.65737	1486.20691	1653.84973	134.18437	1298.63184	1748.16687	187.27698	1160.17053	1770.71619	259.70572	1062.32971	1781.12134	349.12494	965.0379	1750.59021	311.99973	943.14117	1788.03552	372.23203	903.72223	1785.56689	217.39238	981.72675	1354.28369	199.25327	960.78223	1612.67664	1.1128	1020.3147	1421.02649	-10.81891	1020.46149	1534.51733	217.79202	680.81354	1277.03271	249.58315	482.28903	1304.78137	254.77003	288.17743	1298.60522	335.9971	76.51785	1315.83667	315.24704	38.94395	1369.50012	492.0192	81.85535	1297.448	67.30234	664.24402	1660.61487	21.79497	458.30246	1621.8689	-73.72411	294.28583	1623.3114	-145.88205	114.02624	1584.41504	-190.40491	67.01756	1527.05725	-8.64411	35.4612	1605.50146	38.03218	1774.85815	1512.06812	2845.89429	1034.25525	-3357.38916	NaN	NaN	NaN
